<svg width="71" height="70" viewBox="0 0 71 70" fill="none" xmlns="http://www.w3.org/2000/svg">
<g clip-path="url(#clip0_3607_110)">
<path d="M36.3901 19.4979C34.4767 27.3554 34.5992 26.9354 32.8638 34.1221C32.8259 34.7842 32.2776 35.3063 31.6096 35.3063C31.5367 35.3063 31.4638 35.3004 31.3938 35.2888H31.4026H29.4338C29.3755 35.3004 29.3055 35.3063 29.2384 35.3063C28.6463 35.3063 28.1592 34.8659 28.0834 34.2971V34.2913C26.4005 28.9071 24.1459 21.4288 22.6292 16.4267C22.0692 14.5804 22.4367 14.6242 23.9009 14.6621C24.4084 14.6767 24.8984 14.6621 25.403 14.6621C25.438 14.6592 25.4788 14.6563 25.5226 14.6563C26.0942 14.6563 26.5667 15.0792 26.6455 15.6275V15.6334C27.1384 17.3979 27.4651 18.7513 30.2796 29.8667C30.3321 30.0854 30.4021 30.2925 30.4721 30.4938H30.6209C30.688 30.2196 30.7696 29.9629 30.8396 29.6859C31.9052 25.1884 32.9669 20.687 34.0246 16.1817C34.3542 14.7817 34.9405 14.6504 36.358 14.6504H37.3963C38.3296 14.665 38.6271 14.8546 38.8605 15.785C39.6801 18.9846 42.0746 29.6975 42.5092 30.8759C43.2092 28.3734 42.2642 31.955 46.4059 15.9775C46.6917 14.8721 46.9659 14.6534 48.0888 14.6534H49.8126C50.5505 14.6679 50.7692 14.8984 50.5913 15.6246C50.2617 16.9254 50.1946 16.9779 44.9476 33.7896C44.5217 35.1429 44.373 35.2654 42.9526 35.2654H41.503C40.5055 35.2654 40.2459 35.0875 40.0009 34.1163C39.4117 31.9025 36.8159 21.035 36.3901 19.5038V19.4979ZM17.8284 34.6967C18.0267 35.1021 18.4351 35.3763 18.9076 35.3763C19.2401 35.3763 19.5376 35.2421 19.7563 35.0234L20.6167 34.4488C21.5501 33.8334 21.6142 33.5884 21.1096 32.6025C20.5671 31.57 20.2463 30.3479 20.2463 29.05C20.2463 29.0063 20.2463 28.9625 20.2463 28.9188V28.9246C20.2463 28.4988 20.328 21.3121 20.1238 19.7954C19.943 17.2579 18.1842 15.1754 15.8334 14.5134L15.7926 14.5046C14.763 14.2188 13.5817 14.0554 12.3596 14.0554C11.9921 14.0554 11.6246 14.07 11.2659 14.0992L11.3126 14.0963C9.16589 14.1809 7.17089 14.7496 5.4063 15.6917L5.47922 15.6567C5.2138 15.7996 5.01547 16.0359 4.92214 16.3188L4.91922 16.3275C4.84339 16.6717 4.79964 17.0684 4.79964 17.4738C4.79964 17.6517 4.80839 17.8296 4.82297 18.0046L4.82005 17.9813C4.90172 18.7892 5.17589 18.9379 5.94005 18.6813C6.64005 18.4479 7.30797 18.1504 8.00505 17.9434C9.0113 17.57 10.1721 17.3542 11.3855 17.3542C12.3276 17.3542 13.2376 17.4854 14.1009 17.7275L14.0309 17.71C14.9555 17.9871 15.6759 18.6842 15.9792 19.5738L15.9851 19.5942C16.2096 20.3467 16.3409 21.21 16.3409 22.1054C16.3409 22.3796 16.3292 22.6538 16.3059 22.9221L16.3088 22.8871C16.3088 23.6396 16.2942 23.6396 15.5563 23.5025C14.3021 23.1904 12.8642 23.0096 11.3826 23.0096C10.8371 23.0096 10.2946 23.0329 9.76089 23.0825L9.83089 23.0767C7.71339 23.2313 5.86422 24.2609 4.6188 25.7979L4.60714 25.8125C3.8488 26.8625 3.3938 28.1779 3.3938 29.5984C3.3938 30.1729 3.46672 30.7271 3.60672 31.2579L3.59797 31.2113C3.9013 33.2004 5.31297 34.7929 7.17089 35.3588L7.20589 35.3675C8.02255 35.6592 8.96464 35.8284 9.94755 35.8284C11.893 35.8284 13.6867 35.1663 15.1101 34.055L15.0926 34.0696C15.6117 33.6875 16.0784 33.2238 16.6092 32.7688C17.0351 33.4513 17.4026 34.0929 17.8255 34.6821L17.8284 34.6967ZM15.7284 26.2763H15.743C16.0667 26.2763 16.3292 26.5388 16.3292 26.8625C16.3292 26.9034 16.3263 26.9413 16.3176 26.9821V26.9792C16.2884 27.4984 16.3321 28.0175 16.2767 28.5367C16.1309 30.0621 15.1771 31.3338 13.8559 31.9317L13.8296 31.9434C12.9721 32.3925 11.9601 32.6579 10.8838 32.6579C10.6651 32.6579 10.4492 32.6463 10.2363 32.6259L10.2626 32.6288C8.71964 32.5384 7.50339 31.2667 7.50339 29.7092C7.50339 29.47 7.53255 29.2367 7.58797 29.0121L7.58505 29.0325C7.66089 27.4342 8.92672 26.1538 10.5134 26.0546H10.5221C11.1346 25.9554 11.8405 25.9 12.558 25.9C13.6896 25.9 14.7921 26.04 15.8421 26.3025L15.7488 26.2821L15.7284 26.2763ZM63.4042 35.175C65.8105 34.3671 67.5109 32.1329 67.5109 29.5021C67.5109 29.0909 67.4701 28.6884 67.3913 28.3004L67.3971 28.3384C67.0851 26.4338 65.7521 24.9054 63.9875 24.3163L63.9526 24.3046C61.2926 23.4704 59.1138 22.6275 57.0021 21.665L57.3784 21.8196C56.7688 21.5134 56.3546 20.9009 56.34 20.1892C56.3226 20.0813 56.3138 19.9559 56.3138 19.8304C56.3138 18.6084 57.2413 17.605 58.4313 17.4825H58.4401C59.0555 17.3367 59.7613 17.255 60.4876 17.255C61.1205 17.255 61.7417 17.3192 62.3396 17.4388L62.2813 17.43C63.2788 17.6225 64.2355 18.0046 65.2067 18.2904C65.5888 18.4129 66.0146 18.5763 66.2742 18.0717C66.4084 17.7888 66.4871 17.4563 66.4871 17.1092C66.4871 16.24 66.003 15.4846 65.2884 15.0996L65.2767 15.0938C63.8359 14.4054 62.1442 14.0059 60.3592 14.0059C58.7667 14.0059 57.2501 14.3267 55.8676 14.9042L55.9434 14.875C53.8288 15.715 52.3617 17.745 52.3617 20.1163C52.3617 22.3884 53.7092 24.3484 55.6488 25.235L55.6838 25.2496C56.7367 25.7571 57.883 26.0575 58.9913 26.4659C60.0996 26.8742 61.2051 27.2592 62.2871 27.7084C63.0338 28.1225 63.5326 28.9071 63.5326 29.8084C63.5326 30.6425 63.1067 31.3746 62.4592 31.8034L62.4505 31.8092C58.6646 33.9092 53.5838 31.4796 52.9917 31.29C52.5426 31.1413 52.2684 31.3192 52.1313 31.7975C52.0205 32.0571 51.9563 32.3604 51.9563 32.6784C51.9563 33.7546 52.7001 34.6588 53.7034 34.8979L53.718 34.9009C55.2667 35.5221 57.0605 35.8809 58.9388 35.8809C60.5313 35.8809 62.0655 35.6213 63.4976 35.1429L63.3955 35.1721L63.4042 35.175ZM41.1384 57.4146C48.4242 56.6329 55.0392 54.3463 60.8638 50.8696L60.6421 50.9921C61.7359 50.3504 62.7596 49.5921 63.798 48.8454C64.7955 48.1454 64.2355 46.3313 62.2521 47.1771C55.4155 50.1784 47.4763 52.0975 39.1376 52.4884L38.9888 52.4942C38.1138 52.5379 37.0901 52.5613 36.0605 52.5613C32.7005 52.5613 29.3988 52.3046 26.1759 51.8088L26.5346 51.8554C17.4434 50.5459 9.2563 47.6029 1.95005 43.3184L2.26797 43.4904C2.0113 43.3184 1.71672 43.1784 1.40172 43.085L1.37839 43.0792C0.707553 42.9304 0.32547 43.7209 1.0488 44.4034C10.0001 52.6809 22.0167 57.7559 35.2205 57.7559H35.2613H35.2584C37.2271 57.645 39.1959 57.6334 41.1355 57.4146H41.1384ZM65.0171 44.8146C67.0413 44.9254 67.6684 45.6225 67.1638 47.5738C66.6446 49.5979 65.8921 51.5667 65.2651 53.5617C65.1426 53.9584 64.6905 54.4221 65.1542 54.7663C65.6617 55.1221 66.0438 54.6292 66.3851 54.3171C67.7121 53.0542 68.7563 51.5113 69.4301 49.7817L69.4592 49.6971C70.2117 48.0521 70.6492 46.1271 70.6492 44.1C70.6492 44.0534 70.6492 44.0096 70.6492 43.9629V43.9688C70.62 43.1229 70.4042 42.7642 69.5817 42.5338C68.9284 42.3325 68.1613 42.1779 67.3738 42.1021L67.3271 42.0992C66.7934 42.0321 66.178 41.9942 65.5509 41.9942C63.1126 41.9942 60.8084 42.5688 58.7638 43.5867L58.8513 43.5459C58.3992 43.7909 58.0084 44.0592 57.6496 44.3625L57.6613 44.3538C57.5126 44.4763 57.2238 45.0771 57.9909 45.1879C58.0609 45.1938 58.1455 45.1967 58.2271 45.1967C58.4284 45.1967 58.6267 45.1792 58.8163 45.1442L58.7959 45.1471C60.3301 44.9284 62.1034 44.8029 63.903 44.8029C64.2938 44.8029 64.6817 44.8088 65.0696 44.8204H65.0142L65.0171 44.8146Z" fill="#FD6F00"/>
</g>
<defs>
<clipPath id="clip0_3607_110">
<rect width="70" height="70" fill="white" transform="translate(0.666718)"/>
</clipPath>
</defs>
</svg>
