<svg width="24" height="24" viewBox="0 0 24 24" fill="none" xmlns="http://www.w3.org/2000/svg">
<g clip-path="url(#clip0_3605_22)">
<path d="M11.999 24C10.439 24 2.35599 19.346 1.57899 18C0.804986 16.659 0.803986 7.352 1.57799 6.002C2.35099 4.656 10.434 0 11.999 0C13.552 0 21.634 4.652 22.418 5.997C23.201 7.34 23.202 16.652 22.419 18.001C21.639 19.347 13.556 24 11.999 24ZM11.999 1.5C10.823 1.592 3.51299 5.8 2.87499 6.754C2.37399 7.775 2.37399 16.226 2.88199 17.255C3.51499 18.198 10.855 22.423 12.007 22.499C13.141 22.423 20.483 18.197 21.126 17.241C21.626 16.223 21.627 7.776 21.118 6.744C20.48 5.805 13.169 1.593 11.999 1.5Z" fill="#BABABA"/>
<path d="M14.507 12.75H9.49101C9.28901 12.75 9.09501 12.668 8.95501 12.524C8.81301 12.379 8.73601 12.185 8.74101 11.982C8.75001 11.597 8.75201 11.044 8.75401 10.433C8.75701 9.07297 8.76201 7.53197 8.84201 6.67897C8.88101 6.26697 9.25101 5.95897 9.65901 6.00297C10.072 6.04197 10.375 6.40797 10.336 6.81997C10.262 7.60397 10.257 9.17497 10.254 10.437C10.253 10.724 10.252 10.999 10.25 11.249H13.759C13.757 10.091 13.738 8.92397 13.699 7.77297C13.687 7.35997 14.011 7.01397 14.425 6.99997C14.844 6.97397 15.186 7.31197 15.199 7.72497C15.244 9.10697 15.263 10.511 15.257 11.897V12C15.257 12.414 14.921 12.75 14.507 12.75Z" fill="#BABABA"/>
<path d="M14.494 18C14.08 18 13.744 17.664 13.744 17.25C13.744 16.015 13.772 14.291 13.789 13.456C13.782 13.366 13.768 13.2 13.762 12.75L10.241 12.771C10.237 13.914 10.235 14.817 10.305 16.212C10.326 16.626 10.007 16.978 9.59403 16.999C9.17503 17.016 8.82703 16.701 8.80703 16.288C8.73503 14.852 8.73703 13.886 8.74103 12.767V12C8.74103 11.586 9.07703 11.25 9.49103 11.25H14.507C14.921 11.25 15.257 11.586 15.257 12C15.257 12.964 15.276 13.227 15.283 13.338C15.285 13.361 15.289 13.463 15.289 13.486C15.272 14.314 15.244 16.025 15.244 17.25C15.244 17.664 14.908 18 14.494 18Z" fill="#BABABA"/>
<path d="M14.505 19.998C13.734 19.998 12.159 17.865 12.063 17.617C11.95 17.326 12.024 16.93 12.256 16.722C12.614 16.42 16.408 16.416 16.745 16.72C16.975 16.928 17.051 17.323 16.938 17.613C16.842 17.861 15.28 19.998 14.509 19.998C14.509 19.998 14.507 19.998 14.505 19.998ZM14.25 18.001C14.339 18.096 14.426 18.187 14.506 18.269C14.586 18.187 14.672 18.096 14.76 18.001C14.592 18 14.418 18 14.25 18.001ZM9.47902 7.50695C8.44802 7.50695 7.42302 7.43195 7.25502 7.27995C7.02502 7.07195 6.94902 6.67695 7.06202 6.38695C7.15702 6.13995 8.72002 4.00195 9.49002 4.00195C9.49102 4.00195 9.49302 4.00195 9.49502 4.00195C10.266 4.00195 11.841 6.13495 11.937 6.38295C12.05 6.67395 11.976 7.06995 11.744 7.27795C11.564 7.42995 10.518 7.50695 9.47902 7.50695ZM9.24002 5.99995C9.40802 5.99995 9.58002 5.99995 9.75002 5.99995C9.66102 5.90395 9.57402 5.81295 9.49402 5.73095C9.41402 5.81295 9.32802 5.90395 9.24002 5.99995Z" fill="#BABABA"/>
</g>
<defs>
<clipPath id="clip0_3605_22">
<rect width="24" height="24" fill="white"/>
</clipPath>
</defs>
</svg>
