<svg width="24" height="24" viewBox="0 0 24 24" fill="none" xmlns="http://www.w3.org/2000/svg">
<path d="M20.303 16.047H10.742C9.80598 16.047 9.04498 15.244 9.04498 14.257C9.04498 13.27 9.80698 12.467 10.742 12.467H20.303C21.239 12.467 22 13.27 22 14.257C22 15.244 21.238 16.047 20.303 16.047ZM10.742 13.467C10.357 13.467 10.045 13.821 10.045 14.257C10.045 14.693 10.357 15.047 10.742 15.047H20.303C20.688 15.047 21 14.693 21 14.257C21 13.821 20.688 13.467 20.303 13.467H10.742Z" fill="#BABABA"/>
<path d="M11.618 24C10.014 24 8.641 23.467 7.648 22.459L3.55 18.278C2.551 17.262 2 15.819 2 14.215C2 12.637 2.551 11.207 3.552 10.19L13.071 0.509029C13.731 -0.160971 14.9 -0.142971 15.577 0.545029C16.271 1.25103 16.287 2.38403 15.611 3.06903L13.849 4.88503C14.5005 5.15092 15.0919 5.54506 15.588 6.04403L18.051 8.57403C18.723 9.25803 18.706 10.389 18.012 11.095C17.8453 11.2672 17.6458 11.4041 17.4253 11.4977C17.2047 11.5914 16.9676 11.6397 16.728 11.64C16.264 11.64 15.832 11.459 15.509 11.131L12.973 8.63903C12.652 8.31203 12.194 8.14903 11.606 8.14903C11 8.14903 10.537 8.30603 10.231 8.61803L6.164 12.812C5.822 13.161 5.643 13.643 5.643 14.212C5.643 14.789 5.832 15.313 6.162 15.648L10.245 19.83C10.56 20.151 11.019 20.314 11.607 20.314C12.195 20.314 12.652 20.151 12.967 19.83L15.516 17.325C15.6738 17.1648 15.8621 17.0378 16.0697 16.9514C16.2773 16.8651 16.5001 16.8211 16.725 16.822H16.727C17.21 16.822 17.666 17.016 18.013 17.368C18.706 18.073 18.723 19.205 18.049 19.89L15.592 22.415C14.586 23.438 13.176 24 11.618 24ZM14.29 1.00003C14.1957 0.999249 14.1023 1.01744 14.0152 1.05352C13.9281 1.08959 13.8491 1.14282 13.783 1.21003L4.264 10.891C3.449 11.72 3 12.9 3 14.215C3 15.556 3.449 16.75 4.265 17.578L4.266 17.579L8.363 21.759C9.162 22.57 10.288 23 11.618 23C12.906 23 14.062 22.545 14.876 21.718L17.333 19.193C17.628 18.892 17.612 18.389 17.299 18.071C17.2249 17.9936 17.136 17.9319 17.0375 17.8894C16.9391 17.847 16.8332 17.8248 16.726 17.824C16.6326 17.8238 16.5392 17.8421 16.453 17.878C16.3668 17.9139 16.2886 17.9666 16.223 18.033L13.674 20.538C13.177 21.045 12.46 21.316 11.606 21.316C10.752 21.316 10.034 21.045 9.53 20.532L5.446 16.35C4.927 15.823 4.641 15.064 4.641 14.214C4.641 13.39 4.927 12.644 5.447 12.115L9.514 7.92103C10.017 7.40903 10.72 7.15003 11.605 7.15003C12.459 7.15003 13.176 7.42103 13.679 7.93303L16.215 10.425C16.2813 10.4938 16.3608 10.5485 16.4488 10.5856C16.5368 10.6227 16.6315 10.6416 16.727 10.641C16.8338 10.6403 16.9394 10.6182 17.0374 10.5759C17.1355 10.5337 17.2241 10.4722 17.298 10.395C17.611 10.076 17.628 9.57303 17.335 9.27403L14.874 6.74603C14.3172 6.18539 13.6148 5.79156 12.846 5.60903C12.671 5.56803 12.515 5.43303 12.464 5.26003C12.413 5.08703 12.443 4.89703 12.568 4.76803L14.893 2.37003C15.191 2.06803 15.175 1.56503 14.862 1.24603C14.788 1.16883 14.6992 1.10727 14.6009 1.06502C14.5027 1.02276 14.397 1.00066 14.29 1.00003Z" fill="#BABABA"/>
</svg>
